<?xml version="1.0" encoding="utf-8"?>
<!-- Generator: Adobe Illustrator 16.0.0, SVG Export Plug-In . SVG Version: 6.00 Build 0)  -->
<!DOCTYPE svg PUBLIC "-//W3C//DTD SVG 1.1//EN" "http://www.w3.org/Graphics/SVG/1.1/DTD/svg11.dtd">
<svg version="1.1" xmlns="http://www.w3.org/2000/svg" xmlns:xlink="http://www.w3.org/1999/xlink" x="0px" y="0px" width="632px"
	 height="786px" viewBox="0 0 632 786" enable-background="new 0 0 632 786" xml:space="preserve">
<g id="Layer_1" display="none">
	<g display="inline">
		<g>
			<path fill-rule="evenodd" clip-rule="evenodd" fill="#FEFEFE" d="M-652.717,1031.592
				c-0.002-400.038-0.002-800.077-0.002-1200.213c266.349,0,532.7,0,799.212,0c0,400.006,0,800.11,0,1200.213
				C-119.881,1031.592-386.298,1031.592-652.717,1031.592z M-43.207,394.074c-4.775-50.749-24.159-94.642-59.93-130.73
				c-35.754-36.071-79.431-55.883-130.334-61.076c0-9.716,0-18.968,0-28.178c-11.119,0-21.615,0-32.51,0c0,9.446,0,18.54,0,26.842
				c-111.546,17.528-175.578,81.495-193.431,193.345c-9.233,0-19.273,0-29.163,0c0,11.352,0,21.896,0,33.121
				c10.369,0,20.446,0,30.551,0c5.253,50.896,25.036,94.388,60.972,130.039c35.896,35.611,79.489,55.086,130.26,59.89
				c0,8.613,0,17.026,0,25.479c11.103,0,21.617,0,32.679,0c0-8.718,0-17.143,0-25.537c50.814-4.92,94.34-24.538,130.172-60.267
				c35.819-35.716,55.407-79.293,60.601-129.93c8.852,0,17.291,0,25.766,0c0-11.248,0-21.922,0-32.998
				C-26.216,394.074-34.477,394.074-43.207,394.074z"/>
			<path fill-rule="evenodd" clip-rule="evenodd" fill="#040404" d="M-43.207,394.074c8.73,0,16.991,0,25.632,0
				c0,11.076,0,21.75,0,32.998c-8.475,0-16.914,0-25.766,0c-5.194,50.637-24.782,94.214-60.601,129.93
				c-35.832,35.729-79.357,55.347-130.172,60.267c0,8.395,0,16.819,0,25.537c-11.063,0-21.576,0-32.679,0c0-8.452,0-16.865,0-25.479
				c-50.771-4.804-94.364-24.278-130.26-59.89c-35.936-35.651-55.719-79.143-60.972-130.039c-10.105,0-20.183,0-30.551,0
				c0-11.225,0-21.77,0-33.121c9.89,0,19.93,0,29.163,0c17.853-111.85,81.885-175.817,193.431-193.345c0-8.302,0-17.396,0-26.842
				c10.896,0,21.391,0,32.51,0c0,9.21,0,18.462,0,28.178c50.903,5.193,94.58,25.005,130.334,61.076
				C-67.366,299.433-47.982,343.326-43.207,394.074z M-234.197,594.681c93.154-7.124,163.271-86.535,168.317-167.688
				c-8.225,0-16.424,0-24.586,0c0-11.241,0-21.801,0-33.092c8.628,0,17.063,0,25.514,0c-7.307-97.074-86.621-165.886-168.54-171.712
				c0,8.218,0,16.407,0,24.569c-11.121,0-21.487,0-32.533,0c0-8.401,0-16.623,0-24.856
				c-86.322,3.905-166.639,77.697-172.235,172.222c7.566,0,15.106,0,22.425,0c0,11.53,0,22.241,0,33.398c-7.64,0-14.83,0-22.039,0
				c7.698,90.776,85.196,162.565,171.066,167.295c0-8.029,0-16.035,0-23.997c11.146,0,21.655,0,32.609,0
				C-234.197,578.973-234.197,586.814-234.197,594.681z"/>
			<path fill-rule="evenodd" clip-rule="evenodd" fill="#FCFCFC" d="M-234.197,594.681c0-7.866,0-15.708,0-23.86
				c-10.955,0-21.464,0-32.609,0c0,7.962,0,15.968,0,23.997c-85.87-4.729-163.369-76.519-171.066-167.295c7.208,0,14.399,0,22.039,0
				c0-11.157,0-21.868,0-33.398c-7.319,0-14.859,0-22.425,0c5.596-94.525,85.913-168.317,172.235-172.222c0,8.233,0,16.455,0,24.856
				c11.046,0,21.413,0,32.533,0c0-8.163,0-16.351,0-24.569c81.919,5.826,161.232,74.638,168.54,171.712c-8.451,0-16.886,0-25.514,0
				c0,11.291,0,21.851,0,33.092c8.163,0,16.362,0,24.586,0C-70.927,508.146-141.043,587.557-234.197,594.681z M-253.488,410.211
				c-23.644,24.076-46.97,47.829-70.253,71.538c0-64.136,0-128.261,0-192.558c-8.393,0-16.767,0-25.009,0
				c0,83.105,0,165.749,0,249.062c32.597-30.938,64.636-61.347,96.881-91.95c28.447,24.938,56.527,49.555,84.883,74.414
				c5.88-5.607,11.496-10.962,17.315-16.512C-183.999,473.125-217.725,442.59-253.488,410.211z M-147.357,491.066
				c0-68.541,0-135.348,0-201.924c-8.1,0-15.699,0-23.816,0c0,49.163,0,97.92,0,147.934c-28.53-25.21-56.135-49.603-83.987-74.215
				c-21.472,22.15-42.579,43.922-63.449,65.451c6.062,6.089,11.869,11.922,17.713,17.794c15.928-15.771,32.127-31.81,48.369-47.891
				C-217.785,428.889-183.086,459.522-147.357,491.066z"/>
			<path fill-rule="evenodd" clip-rule="evenodd" fill="#040404" d="M-253.488,410.211c35.763,32.379,69.489,62.914,103.817,93.994
				c-5.82,5.55-11.435,10.904-17.315,16.512c-28.356-24.859-56.436-49.477-84.883-74.414c-32.245,30.604-64.284,61.012-96.881,91.95
				c0-83.313,0-165.957,0-249.062c8.242,0,16.616,0,25.009,0c0,64.296,0,128.422,0,192.558
				C-300.458,458.04-277.131,434.287-253.488,410.211z"/>
			<path fill-rule="evenodd" clip-rule="evenodd" fill="#040404" d="M-147.357,491.066c-35.729-31.544-70.427-62.178-105.169-92.851
				c-16.242,16.081-32.441,32.12-48.369,47.891c-5.845-5.872-11.651-11.705-17.713-17.794c20.87-21.529,41.977-43.301,63.449-65.451
				c27.852,24.612,55.457,49.005,83.987,74.215c0-50.014,0-98.771,0-147.934c8.117,0,15.717,0,23.816,0
				C-147.357,355.718-147.357,422.525-147.357,491.066z"/>
		</g>
	</g>
</g>
<g id="Layer_2">
	<g>
		<polygon fill="#F26B71" points="531.776,44.978 598.865,44.978 598.865,610.571 303.489,351.536 168.38,482.919 119.928,433.532 
			297.899,251.834 531.776,460.556 		"/>
		<polygon fill="#F26B71" points="590.479,646.911 542.027,693.501 307.218,485.714 35.135,741.022 35.135,45.909 105.952,45.909 
			105.952,590.073 304.422,386.011 		"/>
	</g>
</g>
</svg>
